<svg xmlns="http://www.w3.org/2000/svg" xmlns:xlink="http://www.w3.org/1999/xlink" contentstyletype="text/css" data-diagram-type="CLASS" height="559px" preserveAspectRatio="xMidYMid meet" style="width: 2486px; height: 559px; background: rgb(255, 255, 255); overflow: hidden; user-select: none; touch-action: none; cursor: move;" version="1.1" viewBox="0 0 2486 559" width="2486px" zoomAndPan="magnify" class="diagram wide-svg"><title>Тёплый дом — Диаграмма кода</title><defs/><g style="user-select: none; touch-action: none; transform-origin: 0px 0px; transition: none; transform: scale(1) translate(0px, 0px);"><text fill="#000000" font-family="sans-serif" font-size="14" font-weight="bold" lengthAdjust="spacing" textLength="258.0225" x="1107.0178" y="22.9951">Тёплый дом — Диаграмма кода</text><g id="elem_APIGateway"><rect codeline="5" fill="#F1F1F1" height="178.375" id="APIGateway" rx="2.5" ry="2.5" style="stroke:#181818;stroke-width:0.5;" width="308.1191" x="984.92" y="44.2969"/><ellipse cx="1092.733" cy="60.2969" fill="#ADD1B2" rx="11" ry="11" style="stroke:#181818;stroke-width:1;"/><path d="M1095.7017,65.9375 Q1095.1236,66.2344 1094.483,66.375 Q1093.8424,66.5313 1093.1392,66.5313 Q1090.6392,66.5313 1089.3111,64.8906 Q1087.9986,63.2344 1087.9986,60.1094 Q1087.9986,56.9844 1089.3111,55.3281 Q1090.6392,53.6719 1093.1392,53.6719 Q1093.8424,53.6719 1094.483,53.8281 Q1095.1392,53.9844 1095.7017,54.2813 L1095.7017,57 Q1095.0767,56.4219 1094.483,56.1563 Q1093.8892,55.875 1093.2642,55.875 Q1091.9205,55.875 1091.233,56.9531 Q1090.5455,58.0156 1090.5455,60.1094 Q1090.5455,62.2031 1091.233,63.2813 Q1091.9205,64.3438 1093.2642,64.3438 Q1093.8892,64.3438 1094.483,64.0781 Q1095.0767,63.7969 1095.7017,63.2188 L1095.7017,65.9375 Z " fill="#000000"/><text fill="#000000" font-family="sans-serif" font-size="14" lengthAdjust="spacing" textLength="83.9932" x="1113.233" y="65.1436">APIGateway</text><line style="stroke:#181818;stroke-width:0.5;" x1="985.92" x2="1292.0391" y1="76.2969" y2="76.2969"/><ellipse cx="995.92" cy="89.9453" fill="#84BE84" rx="3" ry="3" style="stroke:#038048;stroke-width:1;"/><text fill="#000000" font-family="sans-serif" font-size="14" lengthAdjust="spacing" textLength="230.3574" x="1004.92" y="93.292">routeRequest(request : Request)</text><ellipse cx="995.92" cy="106.2422" fill="#84BE84" rx="3" ry="3" style="stroke:#038048;stroke-width:1;"/><text fill="#000000" font-family="sans-serif" font-size="14" lengthAdjust="spacing" textLength="282.1191" x="1004.92" y="109.5889">authenticateRequest(request : Request)</text><line style="stroke:#181818;stroke-width:1;" x1="985.92" x2="1292.0391" y1="116.8906" y2="116.8906"/><rect fill="none" height="6" style="stroke:#C82930;stroke-width:1;" width="6" x="992.92" y="127.5391"/><text fill="#000000" font-family="sans-serif" font-size="14" lengthAdjust="spacing" textLength="181.7266" x="1004.92" y="133.8857">authService : AuthService</text><rect fill="none" height="6" style="stroke:#C82930;stroke-width:1;" width="6" x="992.92" y="143.8359"/><text fill="#000000" font-family="sans-serif" font-size="14" lengthAdjust="spacing" textLength="229.6465" x="1004.92" y="150.1826">accountService : AccountService</text><rect fill="none" height="6" style="stroke:#C82930;stroke-width:1;" width="6" x="992.92" y="160.1328"/><text fill="#000000" font-family="sans-serif" font-size="14" lengthAdjust="spacing" textLength="279.125" x="1004.92" y="166.4795">homeRoomService : HomeRoomService</text><rect fill="none" height="6" style="stroke:#C82930;stroke-width:1;" width="6" x="992.92" y="176.4297"/><text fill="#000000" font-family="sans-serif" font-size="14" lengthAdjust="spacing" textLength="210.9639" x="1004.92" y="182.7764">deviceService : DeviceService</text><rect fill="none" height="6" style="stroke:#C82930;stroke-width:1;" width="6" x="992.92" y="192.7266"/><text fill="#000000" font-family="sans-serif" font-size="14" lengthAdjust="spacing" textLength="237.2275" x="1004.92" y="199.0732">scenarioService : ScenarioService</text><rect fill="none" height="6" style="stroke:#C82930;stroke-width:1;" width="6" x="992.92" y="209.0234"/><text fill="#000000" font-family="sans-serif" font-size="14" lengthAdjust="spacing" textLength="268.3926" x="1004.92" y="215.3701">monitoringService : MonitoringService</text></g><g id="elem_AuthService"><rect codeline="18" fill="#F1F1F1" height="96.8906" id="AuthService" rx="2.5" ry="2.5" style="stroke:#181818;stroke-width:0.5;" width="355.957" x="7" y="290.8169"/><ellipse cx="138.4517" cy="306.8169" fill="#ADD1B2" rx="11" ry="11" style="stroke:#181818;stroke-width:1;"/><path d="M141.4204,312.4575 Q140.8423,312.7544 140.2017,312.895 Q139.561,313.0513 138.8579,313.0513 Q136.3579,313.0513 135.0298,311.4106 Q133.7173,309.7544 133.7173,306.6294 Q133.7173,303.5044 135.0298,301.8481 Q136.3579,300.1919 138.8579,300.1919 Q139.561,300.1919 140.2017,300.3481 Q140.8579,300.5044 141.4204,300.8013 L141.4204,303.52 Q140.7954,302.9419 140.2017,302.6763 Q139.6079,302.395 138.9829,302.395 Q137.6392,302.395 136.9517,303.4731 Q136.2642,304.5356 136.2642,306.6294 Q136.2642,308.7231 136.9517,309.8013 Q137.6392,310.8638 138.9829,310.8638 Q139.6079,310.8638 140.2017,310.5981 Q140.7954,310.3169 141.4204,309.7388 L141.4204,312.4575 Z " fill="#000000"/><text fill="#000000" font-family="sans-serif" font-size="14" lengthAdjust="spacing" textLength="84.5537" x="158.9517" y="311.6636">AuthService</text><line style="stroke:#181818;stroke-width:0.5;" x1="8" x2="361.957" y1="322.8169" y2="322.8169"/><ellipse cx="18" cy="336.4653" fill="#84BE84" rx="3" ry="3" style="stroke:#038048;stroke-width:1;"/><text fill="#000000" font-family="sans-serif" font-size="14" lengthAdjust="spacing" textLength="316.3672" x="27" y="339.812">authenticate(credentials : Credentials) : User</text><ellipse cx="18" cy="352.7622" fill="#84BE84" rx="3" ry="3" style="stroke:#038048;stroke-width:1;"/><text fill="#000000" font-family="sans-serif" font-size="14" lengthAdjust="spacing" textLength="329.957" x="27" y="356.1089">authorize(user : User, action : String) : boolean</text><line style="stroke:#181818;stroke-width:1;" x1="8" x2="361.957" y1="363.4106" y2="363.4106"/><rect fill="#F24D5C" height="6" style="stroke:#C82930;stroke-width:1;" width="6" x="15" y="374.0591"/><text fill="#000000" font-family="sans-serif" font-size="14" lengthAdjust="spacing" textLength="272.8906" x="27" y="380.4057">validateToken(token : string) : boolean</text></g><g id="elem_AccountService"><rect codeline="26" fill="#F1F1F1" height="96.8906" id="AccountService" rx="2.5" ry="2.5" style="stroke:#181818;stroke-width:0.5;" width="312.4326" x="397.76" y="290.8169"/><ellipse cx="495.4695" cy="306.8169" fill="#ADD1B2" rx="11" ry="11" style="stroke:#181818;stroke-width:1;"/><path d="M498.4382,312.4575 Q497.8601,312.7544 497.2195,312.895 Q496.5788,313.0513 495.8757,313.0513 Q493.3757,313.0513 492.0476,311.4106 Q490.7351,309.7544 490.7351,306.6294 Q490.7351,303.5044 492.0476,301.8481 Q493.3757,300.1919 495.8757,300.1919 Q496.5788,300.1919 497.2195,300.3481 Q497.8757,300.5044 498.4382,300.8013 L498.4382,303.52 Q497.8132,302.9419 497.2195,302.6763 Q496.6257,302.395 496.0007,302.395 Q494.657,302.395 493.9695,303.4731 Q493.282,304.5356 493.282,306.6294 Q493.282,308.7231 493.9695,309.8013 Q494.657,310.8638 496.0007,310.8638 Q496.6257,310.8638 497.2195,310.5981 Q497.8132,310.3169 498.4382,309.7388 L498.4382,312.4575 Z " fill="#000000"/><text fill="#000000" font-family="sans-serif" font-size="14" lengthAdjust="spacing" textLength="108.5137" x="515.9695" y="311.6636">AccountService</text><line style="stroke:#181818;stroke-width:0.5;" x1="398.76" x2="709.1926" y1="322.8169" y2="322.8169"/><ellipse cx="408.76" cy="336.4653" fill="#84BE84" rx="3" ry="3" style="stroke:#038048;stroke-width:1;"/><text fill="#000000" font-family="sans-serif" font-size="14" lengthAdjust="spacing" textLength="258.8975" x="417.76" y="339.812">createAccount(user : User) : Account</text><ellipse cx="408.76" cy="352.7622" fill="#84BE84" rx="3" ry="3" style="stroke:#038048;stroke-width:1;"/><text fill="#000000" font-family="sans-serif" font-size="14" lengthAdjust="spacing" textLength="286.4326" x="417.76" y="356.1089">updateAccount(account : Account) : void</text><line style="stroke:#181818;stroke-width:1;" x1="398.76" x2="709.1926" y1="363.4106" y2="363.4106"/><rect fill="#F24D5C" height="6" style="stroke:#C82930;stroke-width:1;" width="6" x="405.76" y="374.0591"/><text fill="#000000" font-family="sans-serif" font-size="14" lengthAdjust="spacing" textLength="224.3555" x="417.76" y="380.4057">sendWelcomeEmail(user : User)</text></g><g id="elem_HomeRoomService"><rect codeline="34" fill="#F1F1F1" height="113.1875" id="HomeRoomService" rx="2.5" ry="2.5" style="stroke:#181818;stroke-width:0.5;" width="338.7783" x="745.59" y="282.6669"/><ellipse cx="843.9386" cy="298.6669" fill="#ADD1B2" rx="11" ry="11" style="stroke:#181818;stroke-width:1;"/><path d="M846.9074,304.3075 Q846.3293,304.6044 845.6886,304.745 Q845.048,304.9013 844.3449,304.9013 Q841.8449,304.9013 840.5168,303.2606 Q839.2043,301.6044 839.2043,298.4794 Q839.2043,295.3544 840.5168,293.6981 Q841.8449,292.0419 844.3449,292.0419 Q845.048,292.0419 845.6886,292.1981 Q846.3449,292.3544 846.9074,292.6513 L846.9074,295.37 Q846.2824,294.7919 845.6886,294.5263 Q845.0949,294.245 844.4699,294.245 Q843.1261,294.245 842.4386,295.3231 Q841.7511,296.3856 841.7511,298.4794 Q841.7511,300.5731 842.4386,301.6513 Q843.1261,302.7138 844.4699,302.7138 Q845.0949,302.7138 845.6886,302.4481 Q846.2824,302.1669 846.9074,301.5888 L846.9074,304.3075 Z " fill="#000000"/><text fill="#000000" font-family="sans-serif" font-size="14" lengthAdjust="spacing" textLength="133.5811" x="864.4386" y="303.5136">HomeRoomService</text><line style="stroke:#181818;stroke-width:0.5;" x1="746.59" x2="1083.3683" y1="314.6669" y2="314.6669"/><ellipse cx="756.59" cy="328.3153" fill="#84BE84" rx="3" ry="3" style="stroke:#038048;stroke-width:1;"/><text fill="#000000" font-family="sans-serif" font-size="14" lengthAdjust="spacing" textLength="216.5146" x="765.59" y="331.662">addHome(home : Home) : void</text><ellipse cx="756.59" cy="344.6122" fill="#84BE84" rx="3" ry="3" style="stroke:#038048;stroke-width:1;"/><text fill="#000000" font-family="sans-serif" font-size="14" lengthAdjust="spacing" textLength="211.6543" x="765.59" y="347.9589">addRoom(room : Room) : void</text><ellipse cx="756.59" cy="360.9091" fill="#84BE84" rx="3" ry="3" style="stroke:#038048;stroke-width:1;"/><text fill="#000000" font-family="sans-serif" font-size="14" lengthAdjust="spacing" textLength="280.4785" x="765.59" y="364.2557">getHomeDetails(homeId : UUID) : Home</text><line style="stroke:#181818;stroke-width:1;" x1="746.59" x2="1083.3683" y1="371.5575" y2="371.5575"/><rect fill="#F24D5C" height="6" style="stroke:#C82930;stroke-width:1;" width="6" x="753.59" y="382.2059"/><text fill="#000000" font-family="sans-serif" font-size="14" lengthAdjust="spacing" textLength="312.7783" x="765.59" y="388.5526">validateRoomConfig(room : Room) : boolean</text></g><g id="elem_DeviceService"><rect codeline="43" fill="#F1F1F1" height="113.1875" id="DeviceService" rx="2.5" ry="2.5" style="stroke:#181818;stroke-width:0.5;" width="488.0342" x="1118.96" y="282.6669"/><ellipse cx="1308.917" cy="298.6669" fill="#ADD1B2" rx="11" ry="11" style="stroke:#181818;stroke-width:1;"/><path d="M1311.8858,304.3075 Q1311.3077,304.6044 1310.667,304.745 Q1310.0264,304.9013 1309.3233,304.9013 Q1306.8233,304.9013 1305.4952,303.2606 Q1304.1827,301.6044 1304.1827,298.4794 Q1304.1827,295.3544 1305.4952,293.6981 Q1306.8233,292.0419 1309.3233,292.0419 Q1310.0264,292.0419 1310.667,292.1981 Q1311.3233,292.3544 1311.8858,292.6513 L1311.8858,295.37 Q1311.2608,294.7919 1310.667,294.5263 Q1310.0733,294.245 1309.4483,294.245 Q1308.1045,294.245 1307.417,295.3231 Q1306.7295,296.3856 1306.7295,298.4794 Q1306.7295,300.5731 1307.417,301.6513 Q1308.1045,302.7138 1309.4483,302.7138 Q1310.0733,302.7138 1310.667,302.4481 Q1311.2608,302.1669 1311.8858,301.5888 L1311.8858,304.3075 Z " fill="#000000"/><text fill="#000000" font-family="sans-serif" font-size="14" lengthAdjust="spacing" textLength="99.6201" x="1329.417" y="303.5136">DeviceService</text><line style="stroke:#181818;stroke-width:0.5;" x1="1119.96" x2="1605.9942" y1="314.6669" y2="314.6669"/><ellipse cx="1129.96" cy="328.3153" fill="#84BE84" rx="3" ry="3" style="stroke:#038048;stroke-width:1;"/><text fill="#000000" font-family="sans-serif" font-size="14" lengthAdjust="spacing" textLength="263.8262" x="1138.96" y="331.662">registerDevice(device : Device) : void</text><ellipse cx="1129.96" cy="344.6122" fill="#84BE84" rx="3" ry="3" style="stroke:#038048;stroke-width:1;"/><text fill="#000000" font-family="sans-serif" font-size="14" lengthAdjust="spacing" textLength="462.0342" x="1138.96" y="347.9589">updateDeviceStatus(deviceId : UUID, status : DeviceStatus) : void</text><ellipse cx="1129.96" cy="360.9091" fill="#84BE84" rx="3" ry="3" style="stroke:#038048;stroke-width:1;"/><text fill="#000000" font-family="sans-serif" font-size="14" lengthAdjust="spacing" textLength="343.5127" x="1138.96" y="364.2557">monitorDevice(deviceId : UUID) : MonitoringData</text><line style="stroke:#181818;stroke-width:1;" x1="1119.96" x2="1605.9942" y1="371.5575" y2="371.5575"/><rect fill="#F24D5C" height="6" style="stroke:#C82930;stroke-width:1;" width="6" x="1126.96" y="382.2059"/><text fill="#000000" font-family="sans-serif" font-size="14" lengthAdjust="spacing" textLength="330.9824" x="1138.96" y="388.5526">sendDeviceUpdateNotification(device : Device)</text></g><g id="elem_ScenarioService"><rect codeline="52" fill="#F1F1F1" height="113.1875" id="ScenarioService" rx="2.5" ry="2.5" style="stroke:#181818;stroke-width:0.5;" width="372.5342" x="1641.71" y="282.6669"/><ellipse cx="1767.4263" cy="298.6669" fill="#ADD1B2" rx="11" ry="11" style="stroke:#181818;stroke-width:1;"/><path d="M1770.3951,304.3075 Q1769.8169,304.6044 1769.1763,304.745 Q1768.5357,304.9013 1767.8326,304.9013 Q1765.3326,304.9013 1764.0044,303.2606 Q1762.6919,301.6044 1762.6919,298.4794 Q1762.6919,295.3544 1764.0044,293.6981 Q1765.3326,292.0419 1767.8326,292.0419 Q1768.5357,292.0419 1769.1763,292.1981 Q1769.8326,292.3544 1770.3951,292.6513 L1770.3951,295.37 Q1769.7701,294.7919 1769.1763,294.5263 Q1768.5826,294.245 1767.9576,294.245 Q1766.6138,294.245 1765.9263,295.3231 Q1765.2388,296.3856 1765.2388,298.4794 Q1765.2388,300.5731 1765.9263,301.6513 Q1766.6138,302.7138 1767.9576,302.7138 Q1768.5826,302.7138 1769.1763,302.4481 Q1769.7701,302.1669 1770.3951,301.5888 L1770.3951,304.3075 Z " fill="#000000"/><text fill="#000000" font-family="sans-serif" font-size="14" lengthAdjust="spacing" textLength="112.6016" x="1787.9263" y="303.5136">ScenarioService</text><line style="stroke:#181818;stroke-width:0.5;" x1="1642.71" x2="2013.2442" y1="314.6669" y2="314.6669"/><ellipse cx="1652.71" cy="328.3153" fill="#84BE84" rx="3" ry="3" style="stroke:#038048;stroke-width:1;"/><text fill="#000000" font-family="sans-serif" font-size="14" lengthAdjust="spacing" textLength="293.5215" x="1661.71" y="331.662">createScenario(scenario : Scenario) : void</text><ellipse cx="1652.71" cy="344.6122" fill="#84BE84" rx="3" ry="3" style="stroke:#038048;stroke-width:1;"/><text fill="#000000" font-family="sans-serif" font-size="14" lengthAdjust="spacing" textLength="292.5166" x="1661.71" y="347.9589">executeScenario(scenarioId : UUID) : void</text><ellipse cx="1652.71" cy="360.9091" fill="#84BE84" rx="3" ry="3" style="stroke:#038048;stroke-width:1;"/><text fill="#000000" font-family="sans-serif" font-size="14" lengthAdjust="spacing" textLength="346.5342" x="1661.71" y="364.2557">listUserScenarios(userId : UUID) : List&lt;Scenario&gt;</text><line style="stroke:#181818;stroke-width:1;" x1="1642.71" x2="2013.2442" y1="371.5575" y2="371.5575"/><rect fill="#F24D5C" height="6" style="stroke:#C82930;stroke-width:1;" width="6" x="1649.71" y="382.2059"/><text fill="#000000" font-family="sans-serif" font-size="14" lengthAdjust="spacing" textLength="331.3311" x="1661.71" y="388.5526">validateScenario(scenario : Scenario) : boolean</text></g><g id="elem_MonitoringService"><rect codeline="61" fill="#F1F1F1" height="113.1875" id="MonitoringService" rx="2.5" ry="2.5" style="stroke:#181818;stroke-width:0.5;" width="430.168" x="2048.89" y="282.6669"/><ellipse cx="2196.4198" cy="298.6669" fill="#ADD1B2" rx="11" ry="11" style="stroke:#181818;stroke-width:1;"/><path d="M2199.3885,304.3075 Q2198.8104,304.6044 2198.1698,304.745 Q2197.5292,304.9013 2196.826,304.9013 Q2194.326,304.9013 2192.9979,303.2606 Q2191.6854,301.6044 2191.6854,298.4794 Q2191.6854,295.3544 2192.9979,293.6981 Q2194.326,292.0419 2196.826,292.0419 Q2197.5292,292.0419 2198.1698,292.1981 Q2198.826,292.3544 2199.3885,292.6513 L2199.3885,295.37 Q2198.7635,294.7919 2198.1698,294.5263 Q2197.576,294.245 2196.951,294.245 Q2195.6073,294.245 2194.9198,295.3231 Q2194.2323,296.3856 2194.2323,298.4794 Q2194.2323,300.5731 2194.9198,301.6513 Q2195.6073,302.7138 2196.951,302.7138 Q2197.576,302.7138 2198.1698,302.4481 Q2198.7635,302.1669 2199.3885,301.5888 L2199.3885,304.3075 Z " fill="#000000"/><text fill="#000000" font-family="sans-serif" font-size="14" lengthAdjust="spacing" textLength="126.6084" x="2216.9198" y="303.5136">MonitoringService</text><line style="stroke:#181818;stroke-width:0.5;" x1="2049.89" x2="2478.058" y1="314.6669" y2="314.6669"/><ellipse cx="2059.89" cy="328.3153" fill="#84BE84" rx="3" ry="3" style="stroke:#038048;stroke-width:1;"/><text fill="#000000" font-family="sans-serif" font-size="14" lengthAdjust="spacing" textLength="352.3174" x="2068.89" y="331.662">logDeviceData(deviceId : UUID, data : Data) : void</text><ellipse cx="2059.89" cy="344.6122" fill="#84BE84" rx="3" ry="3" style="stroke:#038048;stroke-width:1;"/><text fill="#000000" font-family="sans-serif" font-size="14" lengthAdjust="spacing" textLength="404.168" x="2068.89" y="347.9589">retrieveMonitoringData(deviceId : UUID) : MonitoringData</text><ellipse cx="2059.89" cy="360.9091" fill="#84BE84" rx="3" ry="3" style="stroke:#038048;stroke-width:1;"/><text fill="#000000" font-family="sans-serif" font-size="14" lengthAdjust="spacing" textLength="332.6846" x="2068.89" y="364.2557">generateDeviceReport(deviceId : UUID) : String</text><line style="stroke:#181818;stroke-width:1;" x1="2049.89" x2="2478.058" y1="371.5575" y2="371.5575"/><rect fill="#F24D5C" height="6" style="stroke:#C82930;stroke-width:1;" width="6" x="2056.89" y="382.2059"/><text fill="#000000" font-family="sans-serif" font-size="14" lengthAdjust="spacing" textLength="319.6416" x="2068.89" y="388.5526">aggregateData(deviceId : UUID) : List&lt;Data&gt;</text></g><g id="elem_Credentials"><rect codeline="69" fill="#F1F1F1" height="80.5938" id="Credentials" rx="2.5" ry="2.5" style="stroke:#181818;stroke-width:0.5;" width="151.6377" x="109.16" y="464.0069"/><ellipse cx="142.1503" cy="480.0069" fill="#ADD1B2" rx="11" ry="11" style="stroke:#181818;stroke-width:1;"/><path d="M145.1191,485.6475 Q144.541,485.9444 143.9003,486.085 Q143.2597,486.2413 142.5566,486.2413 Q140.0566,486.2413 138.7285,484.6006 Q137.416,482.9444 137.416,479.8194 Q137.416,476.6944 138.7285,475.0381 Q140.0566,473.3819 142.5566,473.3819 Q143.2597,473.3819 143.9003,473.5381 Q144.5566,473.6944 145.1191,473.9913 L145.1191,476.71 Q144.4941,476.1319 143.9003,475.8663 Q143.3066,475.585 142.6816,475.585 Q141.3378,475.585 140.6503,476.6631 Q139.9628,477.7256 139.9628,479.8194 Q139.9628,481.9131 140.6503,482.9913 Q141.3378,484.0538 142.6816,484.0538 Q143.3066,484.0538 143.9003,483.7881 Q144.4941,483.5069 145.1191,482.9288 L145.1191,485.6475 Z " fill="#000000"/><text fill="#000000" font-family="sans-serif" font-size="14" lengthAdjust="spacing" textLength="79.6592" x="160.1482" y="484.8536">Credentials</text><line style="stroke:#181818;stroke-width:0.5;" x1="110.16" x2="259.7977" y1="496.0069" y2="496.0069"/><ellipse cx="120.16" cy="509.6553" fill="none" rx="3" ry="3" style="stroke:#038048;stroke-width:1;"/><text fill="#000000" font-family="sans-serif" font-size="14" lengthAdjust="spacing" textLength="125.6377" x="129.16" y="513.002">username : String</text><ellipse cx="120.16" cy="525.9522" fill="none" rx="3" ry="3" style="stroke:#038048;stroke-width:1;"/><text fill="#000000" font-family="sans-serif" font-size="14" lengthAdjust="spacing" textLength="122.1104" x="129.16" y="529.2989">password : String</text><line style="stroke:#181818;stroke-width:0.5;" x1="110.16" x2="259.7977" y1="536.6006" y2="536.6006"/></g><g id="elem_User"><rect codeline="74" fill="#F1F1F1" height="96.8906" id="User" rx="2.5" ry="2.5" style="stroke:#181818;stroke-width:0.5;" width="121.1016" x="442.43" y="455.8569"/><ellipse cx="483.1661" cy="471.8569" fill="#ADD1B2" rx="11" ry="11" style="stroke:#181818;stroke-width:1;"/><path d="M486.1349,477.4975 Q485.5568,477.7944 484.9161,477.935 Q484.2755,478.0913 483.5724,478.0913 Q481.0724,478.0913 479.7443,476.4506 Q478.4318,474.7944 478.4318,471.6694 Q478.4318,468.5444 479.7443,466.8881 Q481.0724,465.2319 483.5724,465.2319 Q484.2755,465.2319 484.9161,465.3881 Q485.5724,465.5444 486.1349,465.8413 L486.1349,468.56 Q485.5099,467.9819 484.9161,467.7163 Q484.3224,467.435 483.6974,467.435 Q482.3536,467.435 481.6661,468.5131 Q480.9786,469.5756 480.9786,471.6694 Q480.9786,473.7631 481.6661,474.8413 Q482.3536,475.9038 483.6974,475.9038 Q484.3224,475.9038 484.9161,475.6381 Q485.5099,475.3569 486.1349,474.7788 L486.1349,477.4975 Z " fill="#000000"/><text fill="#000000" font-family="sans-serif" font-size="14" lengthAdjust="spacing" textLength="31.9102" x="502.8853" y="476.7036">User</text><line style="stroke:#181818;stroke-width:0.5;" x1="443.43" x2="562.5316" y1="487.8569" y2="487.8569"/><ellipse cx="453.43" cy="501.5053" fill="none" rx="3" ry="3" style="stroke:#038048;stroke-width:1;"/><text fill="#000000" font-family="sans-serif" font-size="14" lengthAdjust="spacing" textLength="92.5723" x="462.43" y="504.852">userId : UUID</text><ellipse cx="453.43" cy="517.8022" fill="none" rx="3" ry="3" style="stroke:#038048;stroke-width:1;"/><text fill="#000000" font-family="sans-serif" font-size="14" lengthAdjust="spacing" textLength="95.1016" x="462.43" y="521.1489">name : String</text><ellipse cx="453.43" cy="534.0991" fill="none" rx="3" ry="3" style="stroke:#038048;stroke-width:1;"/><text fill="#000000" font-family="sans-serif" font-size="14" lengthAdjust="spacing" textLength="94.0078" x="462.43" y="537.4457">email : String</text><line style="stroke:#181818;stroke-width:0.5;" x1="443.43" x2="562.5316" y1="544.7475" y2="544.7475"/></g><g id="elem_Home"><rect codeline="81" fill="#F1F1F1" height="96.8906" id="Home" rx="2.5" ry="2.5" style="stroke:#181818;stroke-width:0.5;" width="171.8652" x="694.05" y="455.8569"/><ellipse cx="755.0607" cy="471.8569" fill="#ADD1B2" rx="11" ry="11" style="stroke:#181818;stroke-width:1;"/><path d="M758.0295,477.4975 Q757.4514,477.7944 756.8107,477.935 Q756.1701,478.0913 755.467,478.0913 Q752.967,478.0913 751.6389,476.4506 Q750.3264,474.7944 750.3264,471.6694 Q750.3264,468.5444 751.6389,466.8881 Q752.967,465.2319 755.467,465.2319 Q756.1701,465.2319 756.8107,465.3881 Q757.467,465.5444 758.0295,465.8413 L758.0295,468.56 Q757.4045,467.9819 756.8107,467.7163 Q756.217,467.435 755.592,467.435 Q754.2482,467.435 753.5607,468.5131 Q752.8732,469.5756 752.8732,471.6694 Q752.8732,473.7631 753.5607,474.8413 Q754.2482,475.9038 755.592,475.9038 Q756.217,475.9038 756.8107,475.6381 Q757.4045,475.3569 758.0295,474.7788 L758.0295,477.4975 Z " fill="#000000"/><text fill="#000000" font-family="sans-serif" font-size="14" lengthAdjust="spacing" textLength="41.3438" x="775.5607" y="476.7036">Home</text><line style="stroke:#181818;stroke-width:0.5;" x1="695.05" x2="864.9152" y1="487.8569" y2="487.8569"/><ellipse cx="705.05" cy="501.5053" fill="none" rx="3" ry="3" style="stroke:#038048;stroke-width:1;"/><text fill="#000000" font-family="sans-serif" font-size="14" lengthAdjust="spacing" textLength="101.7256" x="714.05" y="504.852">homeId : UUID</text><ellipse cx="705.05" cy="517.8022" fill="none" rx="3" ry="3" style="stroke:#038048;stroke-width:1;"/><text fill="#000000" font-family="sans-serif" font-size="14" lengthAdjust="spacing" textLength="110.708" x="714.05" y="521.1489">address : String</text><ellipse cx="705.05" cy="534.0991" fill="none" rx="3" ry="3" style="stroke:#038048;stroke-width:1;"/><text fill="#000000" font-family="sans-serif" font-size="14" lengthAdjust="spacing" textLength="145.8652" x="714.05" y="537.4457">rooms : List&lt;Room&gt;</text><line style="stroke:#181818;stroke-width:0.5;" x1="695.05" x2="864.9152" y1="544.7475" y2="544.7475"/></g><g id="elem_Room"><rect codeline="87" fill="#F1F1F1" height="96.8906" id="Room" rx="2.5" ry="2.5" style="stroke:#181818;stroke-width:0.5;" width="127.7256" x="901.12" y="455.8569"/><ellipse cx="940.9733" cy="471.8569" fill="#ADD1B2" rx="11" ry="11" style="stroke:#181818;stroke-width:1;"/><path d="M943.942,477.4975 Q943.3639,477.7944 942.7233,477.935 Q942.0826,478.0913 941.3795,478.0913 Q938.8795,478.0913 937.5514,476.4506 Q936.2389,474.7944 936.2389,471.6694 Q936.2389,468.5444 937.5514,466.8881 Q938.8795,465.2319 941.3795,465.2319 Q942.0826,465.2319 942.7233,465.3881 Q943.3795,465.5444 943.942,465.8413 L943.942,468.56 Q943.317,467.9819 942.7233,467.7163 Q942.1295,467.435 941.5045,467.435 Q940.1608,467.435 939.4733,468.5131 Q938.7858,469.5756 938.7858,471.6694 Q938.7858,473.7631 939.4733,474.8413 Q940.1608,475.9038 941.5045,475.9038 Q942.1295,475.9038 942.7233,475.6381 Q943.317,475.3569 943.942,474.7788 L943.942,477.4975 Z " fill="#000000"/><text fill="#000000" font-family="sans-serif" font-size="14" lengthAdjust="spacing" textLength="40.4961" x="960.4962" y="476.7036">Room</text><line style="stroke:#181818;stroke-width:0.5;" x1="902.12" x2="1027.8456" y1="487.8569" y2="487.8569"/><ellipse cx="912.12" cy="501.5053" fill="none" rx="3" ry="3" style="stroke:#038048;stroke-width:1;"/><text fill="#000000" font-family="sans-serif" font-size="14" lengthAdjust="spacing" textLength="98.5605" x="921.12" y="504.852">roomId : UUID</text><ellipse cx="912.12" cy="517.8022" fill="none" rx="3" ry="3" style="stroke:#038048;stroke-width:1;"/><text fill="#000000" font-family="sans-serif" font-size="14" lengthAdjust="spacing" textLength="101.7256" x="921.12" y="521.1489">homeId : UUID</text><ellipse cx="912.12" cy="534.0991" fill="none" rx="3" ry="3" style="stroke:#038048;stroke-width:1;"/><text fill="#000000" font-family="sans-serif" font-size="14" lengthAdjust="spacing" textLength="95.1016" x="921.12" y="537.4457">name : String</text><line style="stroke:#181818;stroke-width:0.5;" x1="902.12" x2="1027.8456" y1="544.7475" y2="544.7475"/></g><g id="elem_Device"><rect codeline="93" fill="#F1F1F1" height="96.8906" id="Device" rx="2.5" ry="2.5" style="stroke:#181818;stroke-width:0.5;" width="134.0215" x="1295.97" y="455.8569"/><ellipse cx="1335.3342" cy="471.8569" fill="#ADD1B2" rx="11" ry="11" style="stroke:#181818;stroke-width:1;"/><path d="M1338.3029,477.4975 Q1337.7248,477.7944 1337.0842,477.935 Q1336.4435,478.0913 1335.7404,478.0913 Q1333.2404,478.0913 1331.9123,476.4506 Q1330.5998,474.7944 1330.5998,471.6694 Q1330.5998,468.5444 1331.9123,466.8881 Q1333.2404,465.2319 1335.7404,465.2319 Q1336.4435,465.2319 1337.0842,465.3881 Q1337.7404,465.5444 1338.3029,465.8413 L1338.3029,468.56 Q1337.6779,467.9819 1337.0842,467.7163 Q1336.4904,467.435 1335.8654,467.435 Q1334.5217,467.435 1333.8342,468.5131 Q1333.1467,469.5756 1333.1467,471.6694 Q1333.1467,473.7631 1333.8342,474.8413 Q1334.5217,475.9038 1335.8654,475.9038 Q1336.4904,475.9038 1337.0842,475.6381 Q1337.6779,475.3569 1338.3029,474.7788 L1338.3029,477.4975 Z " fill="#000000"/><text fill="#000000" font-family="sans-serif" font-size="14" lengthAdjust="spacing" textLength="47.8789" x="1354.7484" y="476.7036">Device</text><line style="stroke:#181818;stroke-width:0.5;" x1="1296.97" x2="1428.9915" y1="487.8569" y2="487.8569"/><ellipse cx="1306.97" cy="501.5053" fill="none" rx="3" ry="3" style="stroke:#038048;stroke-width:1;"/><text fill="#000000" font-family="sans-serif" font-size="14" lengthAdjust="spacing" textLength="108.0215" x="1315.97" y="504.852">deviceId : UUID</text><ellipse cx="1306.97" cy="517.8022" fill="none" rx="3" ry="3" style="stroke:#038048;stroke-width:1;"/><text fill="#000000" font-family="sans-serif" font-size="14" lengthAdjust="spacing" textLength="87.2607" x="1315.97" y="521.1489">status : Bool</text><ellipse cx="1306.97" cy="534.0991" fill="none" rx="3" ry="3" style="stroke:#038048;stroke-width:1;"/><text fill="#000000" font-family="sans-serif" font-size="14" lengthAdjust="spacing" textLength="86.6729" x="1315.97" y="537.4457">type : String</text><line style="stroke:#181818;stroke-width:0.5;" x1="1296.97" x2="1428.9915" y1="544.7475" y2="544.7475"/></g><g id="elem_Scenario"><rect codeline="99" fill="#F1F1F1" height="96.8906" id="Scenario" rx="2.5" ry="2.5" style="stroke:#181818;stroke-width:0.5;" width="159.2393" x="1748.36" y="455.8569"/><ellipse cx="1793.2995" cy="471.8569" fill="#ADD1B2" rx="11" ry="11" style="stroke:#181818;stroke-width:1;"/><path d="M1796.2682,477.4975 Q1795.6901,477.7944 1795.0495,477.935 Q1794.4088,478.0913 1793.7057,478.0913 Q1791.2057,478.0913 1789.8776,476.4506 Q1788.5651,474.7944 1788.5651,471.6694 Q1788.5651,468.5444 1789.8776,466.8881 Q1791.2057,465.2319 1793.7057,465.2319 Q1794.4088,465.2319 1795.0495,465.3881 Q1795.7057,465.5444 1796.2682,465.8413 L1796.2682,468.56 Q1795.6432,467.9819 1795.0495,467.7163 Q1794.4557,467.435 1793.8307,467.435 Q1792.487,467.435 1791.7995,468.5131 Q1791.112,469.5756 1791.112,471.6694 Q1791.112,473.7631 1791.7995,474.8413 Q1792.487,475.9038 1793.8307,475.9038 Q1794.4557,475.9038 1795.0495,475.6381 Q1795.6432,475.3569 1796.2682,474.7788 L1796.2682,477.4975 Z " fill="#000000"/><text fill="#000000" font-family="sans-serif" font-size="14" lengthAdjust="spacing" textLength="60.8604" x="1813.7995" y="476.7036">Scenario</text><line style="stroke:#181818;stroke-width:0.5;" x1="1749.36" x2="1906.5993" y1="487.8569" y2="487.8569"/><ellipse cx="1759.36" cy="501.5053" fill="none" rx="3" ry="3" style="stroke:#038048;stroke-width:1;"/><text fill="#000000" font-family="sans-serif" font-size="14" lengthAdjust="spacing" textLength="121.3037" x="1768.36" y="504.852">scenarioId : UUID</text><ellipse cx="1759.36" cy="517.8022" fill="none" rx="3" ry="3" style="stroke:#038048;stroke-width:1;"/><text fill="#000000" font-family="sans-serif" font-size="14" lengthAdjust="spacing" textLength="92.5723" x="1768.36" y="521.1489">userId : UUID</text><ellipse cx="1759.36" cy="534.0991" fill="none" rx="3" ry="3" style="stroke:#038048;stroke-width:1;"/><text fill="#000000" font-family="sans-serif" font-size="14" lengthAdjust="spacing" textLength="133.2393" x="1768.36" y="537.4457">description : String</text><line style="stroke:#181818;stroke-width:0.5;" x1="1749.36" x2="1906.5993" y1="544.7475" y2="544.7475"/></g><g id="elem_MonitoringData"><rect codeline="105" fill="#F1F1F1" height="80.5938" id="MonitoringData" rx="2.5" ry="2.5" style="stroke:#181818;stroke-width:0.5;" width="140.2949" x="2193.83" y="464.0069"/><ellipse cx="2208.83" cy="480.0069" fill="#ADD1B2" rx="11" ry="11" style="stroke:#181818;stroke-width:1;"/><path d="M2211.7988,485.6475 Q2211.2206,485.9444 2210.58,486.085 Q2209.9394,486.2413 2209.2363,486.2413 Q2206.7363,486.2413 2205.4081,484.6006 Q2204.0956,482.9444 2204.0956,479.8194 Q2204.0956,476.6944 2205.4081,475.0381 Q2206.7363,473.3819 2209.2363,473.3819 Q2209.9394,473.3819 2210.58,473.5381 Q2211.2363,473.6944 2211.7988,473.9913 L2211.7988,476.71 Q2211.1738,476.1319 2210.58,475.8663 Q2209.9863,475.585 2209.3613,475.585 Q2208.0175,475.585 2207.33,476.6631 Q2206.6425,477.7256 2206.6425,479.8194 Q2206.6425,481.9131 2207.33,482.9913 Q2208.0175,484.0538 2209.3613,484.0538 Q2209.9863,484.0538 2210.58,483.7881 Q2211.1738,483.5069 2211.7988,482.9288 L2211.7988,485.6475 Z " fill="#000000"/><text fill="#000000" font-family="sans-serif" font-size="14" lengthAdjust="spacing" textLength="108.2949" x="2222.83" y="484.8536">MonitoringData</text><line style="stroke:#181818;stroke-width:0.5;" x1="2194.83" x2="2333.1249" y1="496.0069" y2="496.0069"/><ellipse cx="2204.83" cy="509.6553" fill="none" rx="3" ry="3" style="stroke:#038048;stroke-width:1;"/><text fill="#000000" font-family="sans-serif" font-size="14" lengthAdjust="spacing" textLength="108.0215" x="2213.83" y="513.002">deviceId : UUID</text><ellipse cx="2204.83" cy="525.9522" fill="none" rx="3" ry="3" style="stroke:#038048;stroke-width:1;"/><text fill="#000000" font-family="sans-serif" font-size="14" lengthAdjust="spacing" textLength="78.5791" x="2213.83" y="529.2989">data : Data</text><line style="stroke:#181818;stroke-width:0.5;" x1="2194.83" x2="2333.1249" y1="536.6006" y2="536.6006"/></g><g id="link_APIGateway_AuthService"><path codeline="110" d="M972.6009,162.7627 C818.6409,189.8027 587.73,232.8669 379.98,282.6669 C369.97,285.0669 359.69,287.6469 349.36,290.3269 " fill="none" id="APIGateway-backto-AuthService" style="stroke:#181818;stroke-width:1;"/><polygon fill="none" points="984.42,160.6869,977.8185,157.7851,972.6009,162.7627,979.2024,165.6645,984.42,160.6869" style="stroke:#181818;stroke-width:1;"/></g><g id="link_APIGateway_AccountService"><path codeline="111" d="M973.1779,192.2343 C882.1179,223.9543 779.23,259.7969 691.33,290.4169 " fill="none" id="APIGateway-backto-AccountService" style="stroke:#181818;stroke-width:1;"/><polygon fill="none" points="984.51,188.2869,977.5281,186.4832,973.1779,192.2343,980.1597,194.038,984.51,188.2869" style="stroke:#181818;stroke-width:1;"/></g><g id="link_APIGateway_HomeRoomService"><path codeline="112" d="M1032.8323,231.0507 C1010.6323,251.2407 996.53,264.0769 976.33,282.4469 " fill="none" id="APIGateway-backto-HomeRoomService" style="stroke:#181818;stroke-width:1;"/><polygon fill="none" points="1041.71,222.9769,1034.5799,224.0546,1032.8323,231.0507,1039.9625,229.973,1041.71,222.9769" style="stroke:#181818;stroke-width:1;"/></g><g id="link_APIGateway_DeviceService"><path codeline="113" d="M1245.1277,231.0507 C1267.3277,251.2407 1281.43,264.0769 1301.63,282.4469 " fill="none" id="APIGateway-backto-DeviceService" style="stroke:#181818;stroke-width:1;"/><polygon fill="none" points="1236.25,222.9769,1237.9975,229.973,1245.1277,231.0507,1243.3801,224.0546,1236.25,222.9769" style="stroke:#181818;stroke-width:1;"/></g><g id="link_APIGateway_ScenarioService"><path codeline="114" d="M1304.6771,183.4908 C1407.7171,213.9708 1532.35,250.8269 1641.48,283.1069 " fill="none" id="APIGateway-backto-ScenarioService" style="stroke:#181818;stroke-width:1;"/><polygon fill="none" points="1293.17,180.0869,1297.7889,185.6245,1304.6771,183.4908,1300.0582,177.9531,1293.17,180.0869" style="stroke:#181818;stroke-width:1;"/></g><g id="link_APIGateway_MonitoringService"><path codeline="115" d="M1305.1301,158.4579 C1483.6201,184.9379 1774.17,230.4569 2031.98,282.6669 C2037.46,283.7769 2043.01,284.9269 2048.6,286.1069 " fill="none" id="APIGateway-backto-MonitoringService" style="stroke:#181818;stroke-width:1;"/><polygon fill="none" points="1293.26,156.6969,1298.608,161.5341,1305.1301,158.4579,1299.782,153.6207,1293.26,156.6969" style="stroke:#181818;stroke-width:1;"/></g><g id="link_AuthService_User"><path codeline="117" d="M278.24,388.0769 C331.2,415.2369 390.6404,445.7103 437.0204,469.4803 " fill="none" id="AuthService-to-User" style="stroke:#181818;stroke-width:1;stroke-dasharray:7.0,7.0;"/><polygon fill="#181818" points="442.36,472.2169,436.175,464.5523,437.9103,469.9364,432.5262,471.6717,442.36,472.2169" style="stroke:#181818;stroke-width:1;"/></g><g id="link_AccountService_User"><path codeline="118" d="M539.09,387.8569 C532.45,409.0969 526.4221,428.3608 519.7621,449.6408 " fill="none" id="AccountService-to-User" style="stroke:#181818;stroke-width:1;stroke-dasharray:7.0,7.0;"/><polygon fill="#181818" points="517.97,455.3669,524.4756,447.9724,519.4634,450.5951,516.8407,445.583,517.97,455.3669" style="stroke:#181818;stroke-width:1;"/></g><g id="link_HomeRoomService_Home"><path codeline="119" d="M868.9,395.9169 C852.86,415.2869 838.8482,432.2168 823.3782,450.8868 " fill="none" id="HomeRoomService-to-Home" style="stroke:#181818;stroke-width:1;stroke-dasharray:7.0,7.0;"/><polygon fill="#181818" points="819.55,455.5069,828.3723,451.1289,822.7402,451.6568,822.2122,446.0247,819.55,455.5069" style="stroke:#181818;stroke-width:1;"/></g><g id="link_HomeRoomService_Room"><path codeline="120" d="M932.05,395.9169 C937.99,415.2869 942.8296,431.1009 948.5596,449.7709 " fill="none" id="HomeRoomService-to-Room" style="stroke:#181818;stroke-width:1;stroke-dasharray:7.0,7.0;"/><polygon fill="#181818" points="950.32,455.5069,951.5033,445.7294,948.853,450.7269,943.8554,448.0766,950.32,455.5069" style="stroke:#181818;stroke-width:1;"/></g><g id="link_DeviceService_Device"><path codeline="121" d="M1362.98,395.9169 C1362.98,415.2869 1362.98,430.8369 1362.98,449.5069 " fill="none" id="DeviceService-to-Device" style="stroke:#181818;stroke-width:1;stroke-dasharray:7.0,7.0;"/><polygon fill="#181818" points="1362.98,455.5069,1366.98,446.5069,1362.98,450.5069,1358.98,446.5069,1362.98,455.5069" style="stroke:#181818;stroke-width:1;"/></g><g id="link_ScenarioService_Scenario"><path codeline="122" d="M1827.98,395.9169 C1827.98,415.2869 1827.98,430.8369 1827.98,449.5069 " fill="none" id="ScenarioService-to-Scenario" style="stroke:#181818;stroke-width:1;stroke-dasharray:7.0,7.0;"/><polygon fill="#181818" points="1827.98,455.5069,1831.98,446.5069,1827.98,450.5069,1823.98,446.5069,1827.98,455.5069" style="stroke:#181818;stroke-width:1;"/></g><g id="link_AuthService_Credentials"><path codeline="124" d="M184.98,387.8569 C184.98,411.9169 184.98,434.7769 184.98,457.6269 " fill="none" id="AuthService-to-Credentials" style="stroke:#181818;stroke-width:1;stroke-dasharray:7.0,7.0;"/><polygon fill="#181818" points="184.98,463.6269,188.98,454.6269,184.98,458.6269,180.98,454.6269,184.98,463.6269" style="stroke:#181818;stroke-width:1;"/></g><g id="link_MonitoringService_MonitoringData"><path codeline="125" d="M2263.98,395.9169 C2263.98,418.1469 2263.98,437.2469 2263.98,457.5769 " fill="none" id="MonitoringService-to-MonitoringData" style="stroke:#181818;stroke-width:1;stroke-dasharray:7.0,7.0;"/><polygon fill="#181818" points="2263.98,463.5769,2267.98,454.5769,2263.98,458.5769,2259.98,454.5769,2263.98,463.5769" style="stroke:#181818;stroke-width:1;"/></g></g></svg>