<svg xmlns="http://www.w3.org/2000/svg" xmlns:xlink="http://www.w3.org/1999/xlink" contentstyletype="text/css" data-diagram-type="CLASS" height="1131px" preserveAspectRatio="xMidYMid meet" style="width: 824px; height: 1131px; background: rgb(255, 255, 255); overflow: hidden; user-select: none; touch-action: none; cursor: move;" version="1.1" viewBox="0 0 824 1131" width="824px" zoomAndPan="magnify" class="diagram"><title>Тёплый дом — Диаграмма кода</title><defs/><g style="user-select: none; touch-action: none; transform-origin: 0px 0px; transition: none; transform: scale(1) translate(0px, 0px);"><text fill="#000000" font-family="sans-serif" font-size="14" font-weight="bold" lengthAdjust="spacing" textLength="258.0225" x="276.096" y="22.9951">Тёплый дом — Диаграмма кода</text><g id="elem_User"><rect codeline="4" fill="#F1F1F1" height="113.1875" id="User" rx="2.5" ry="2.5" style="stroke:#181818;stroke-width:0.5;" width="122.9814" x="201.95" y="44.2969"/><ellipse cx="243.5321" cy="60.2969" fill="#ADD1B2" rx="11" ry="11" style="stroke:#181818;stroke-width:1;"/><path d="M246.5008,65.9375 Q245.9227,66.2344 245.2821,66.375 Q244.6415,66.5313 243.9383,66.5313 Q241.4383,66.5313 240.1102,64.8906 Q238.7977,63.2344 238.7977,60.1094 Q238.7977,56.9844 240.1102,55.3281 Q241.4383,53.6719 243.9383,53.6719 Q244.6415,53.6719 245.2821,53.8281 Q245.9383,53.9844 246.5008,54.2813 L246.5008,57 Q245.8758,56.4219 245.2821,56.1563 Q244.6883,55.875 244.0633,55.875 Q242.7196,55.875 242.0321,56.9531 Q241.3446,58.0156 241.3446,60.1094 Q241.3446,62.2031 242.0321,63.2813 Q242.7196,64.3438 244.0633,64.3438 Q244.6883,64.3438 245.2821,64.0781 Q245.8758,63.7969 246.5008,63.2188 L246.5008,65.9375 Z " fill="#000000"/><text fill="#000000" font-family="sans-serif" font-size="14" lengthAdjust="spacing" textLength="31.9102" x="263.4392" y="65.1436">User</text><line style="stroke:#181818;stroke-width:0.5;" x1="202.95" x2="323.9314" y1="76.2969" y2="76.2969"/><text fill="#000000" font-family="sans-serif" font-size="14" lengthAdjust="spacing" textLength="40.1953" x="207.95" y="93.292">id: int</text><text fill="#000000" font-family="sans-serif" font-size="14" lengthAdjust="spacing" textLength="89.0586" x="207.95" y="109.5889">name: string</text><text fill="#000000" font-family="sans-serif" font-size="14" lengthAdjust="spacing" textLength="110.9814" x="207.95" y="125.8857">surname: string</text><text fill="#000000" font-family="sans-serif" font-size="14" lengthAdjust="spacing" textLength="105.1982" x="207.95" y="142.1826">birthdate: date</text><line style="stroke:#181818;stroke-width:0.5;" x1="202.95" x2="323.9314" y1="149.4844" y2="149.4844"/></g><g id="elem_House"><rect codeline="11" fill="#F1F1F1" height="96.8906" id="House" rx="2.5" ry="2.5" style="stroke:#181818;stroke-width:0.5;" width="89.7314" x="218.57" y="234.4869"/><ellipse cx="239.8063" cy="250.4869" fill="#ADD1B2" rx="11" ry="11" style="stroke:#181818;stroke-width:1;"/><path d="M242.775,256.1275 Q242.1969,256.4244 241.5563,256.565 Q240.9157,256.7213 240.2125,256.7213 Q237.7125,256.7213 236.3844,255.0806 Q235.0719,253.4244 235.0719,250.2994 Q235.0719,247.1744 236.3844,245.5181 Q237.7125,243.8619 240.2125,243.8619 Q240.9157,243.8619 241.5563,244.0181 Q242.2125,244.1744 242.775,244.4713 L242.775,247.19 Q242.15,246.6119 241.5563,246.3463 Q240.9625,246.065 240.3375,246.065 Q238.9938,246.065 238.3063,247.1431 Q237.6188,248.2056 237.6188,250.2994 Q237.6188,252.3931 238.3063,253.4713 Q238.9938,254.5338 240.3375,254.5338 Q240.9625,254.5338 241.5563,254.2681 Q242.15,253.9869 242.775,253.4088 L242.775,256.1275 Z " fill="#000000"/><text fill="#000000" font-family="sans-serif" font-size="14" lengthAdjust="spacing" textLength="43.873" x="255.1921" y="255.3336">House</text><line style="stroke:#181818;stroke-width:0.5;" x1="219.57" x2="307.3014" y1="266.4869" y2="266.4869"/><text fill="#000000" font-family="sans-serif" font-size="14" lengthAdjust="spacing" textLength="40.1953" x="224.57" y="283.482">id: int</text><text fill="#000000" font-family="sans-serif" font-size="14" lengthAdjust="spacing" textLength="76.7266" x="224.57" y="299.7789">title: string</text><text fill="#000000" font-family="sans-serif" font-size="14" lengthAdjust="spacing" textLength="77.7314" x="224.57" y="316.0757">user_id: int</text><line style="stroke:#181818;stroke-width:0.5;" x1="219.57" x2="307.3014" y1="323.3775" y2="323.3775"/></g><g id="elem_Room"><rect codeline="17" fill="#F1F1F1" height="96.8906" id="Room" rx="2.5" ry="2.5" style="stroke:#181818;stroke-width:0.5;" width="101.4141" x="212.73" y="408.3769"/><ellipse cx="240.7431" cy="424.3769" fill="#ADD1B2" rx="11" ry="11" style="stroke:#181818;stroke-width:1;"/><path d="M243.7118,430.0175 Q243.1337,430.3144 242.4931,430.455 Q241.8525,430.6113 241.1493,430.6113 Q238.6493,430.6113 237.3212,428.9706 Q236.0087,427.3144 236.0087,424.1894 Q236.0087,421.0644 237.3212,419.4081 Q238.6493,417.7519 241.1493,417.7519 Q241.8525,417.7519 242.4931,417.9081 Q243.1493,418.0644 243.7118,418.3613 L243.7118,421.08 Q243.0868,420.5019 242.4931,420.2363 Q241.8993,419.955 241.2743,419.955 Q239.9306,419.955 239.2431,421.0331 Q238.5556,422.0956 238.5556,424.1894 Q238.5556,426.2831 239.2431,427.3613 Q239.9306,428.4238 241.2743,428.4238 Q241.8993,428.4238 242.4931,428.1581 Q243.0868,427.8769 243.7118,427.2988 L243.7118,430.0175 Z " fill="#000000"/><text fill="#000000" font-family="sans-serif" font-size="14" lengthAdjust="spacing" textLength="40.4961" x="257.6349" y="429.2236">Room</text><line style="stroke:#181818;stroke-width:0.5;" x1="213.73" x2="313.1441" y1="440.3769" y2="440.3769"/><text fill="#000000" font-family="sans-serif" font-size="14" lengthAdjust="spacing" textLength="40.1953" x="218.73" y="457.372">id: int</text><text fill="#000000" font-family="sans-serif" font-size="14" lengthAdjust="spacing" textLength="76.7266" x="218.73" y="473.6689">title: string</text><text fill="#000000" font-family="sans-serif" font-size="14" lengthAdjust="spacing" textLength="89.4141" x="218.73" y="489.9657">house_id: int</text><line style="stroke:#181818;stroke-width:0.5;" x1="213.73" x2="313.1441" y1="497.2675" y2="497.2675"/></g><g id="elem_DeviceHub"><rect codeline="23" fill="#F1F1F1" height="96.8906" id="DeviceHub" rx="2.5" ry="2.5" style="stroke:#181818;stroke-width:0.5;" width="161.0166" x="348.93" y="408.3769"/><ellipse cx="387.7128" cy="424.3769" fill="#ADD1B2" rx="11" ry="11" style="stroke:#181818;stroke-width:1;"/><path d="M390.6815,430.0175 Q390.1034,430.3144 389.4628,430.455 Q388.8221,430.6113 388.119,430.6113 Q385.619,430.6113 384.2909,428.9706 Q382.9784,427.3144 382.9784,424.1894 Q382.9784,421.0644 384.2909,419.4081 Q385.619,417.7519 388.119,417.7519 Q388.8221,417.7519 389.4628,417.9081 Q390.119,418.0644 390.6815,418.3613 L390.6815,421.08 Q390.0565,420.5019 389.4628,420.2363 Q388.869,419.955 388.244,419.955 Q386.9003,419.955 386.2128,421.0331 Q385.5253,422.0956 385.5253,424.1894 Q385.5253,426.2831 386.2128,427.3613 Q386.9003,428.4238 388.244,428.4238 Q388.869,428.4238 389.4628,428.1581 Q390.0565,427.8769 390.6815,427.2988 L390.6815,430.0175 Z " fill="#000000"/><text fill="#000000" font-family="sans-serif" font-size="14" lengthAdjust="spacing" textLength="76.166" x="406.9978" y="429.2236">DeviceHub</text><line style="stroke:#181818;stroke-width:0.5;" x1="349.93" x2="508.9466" y1="440.3769" y2="440.3769"/><text fill="#000000" font-family="sans-serif" font-size="14" lengthAdjust="spacing" textLength="40.1953" x="354.93" y="457.372">id: int</text><text fill="#000000" font-family="sans-serif" font-size="14" lengthAdjust="spacing" textLength="149.0166" x="354.93" y="473.6689">serial_number: string</text><text fill="#000000" font-family="sans-serif" font-size="14" lengthAdjust="spacing" textLength="89.4141" x="354.93" y="489.9657">house_id: int</text><line style="stroke:#181818;stroke-width:0.5;" x1="349.93" x2="508.9466" y1="497.2675" y2="497.2675"/></g><g id="elem_DeviceType"><rect codeline="29" fill="#F1F1F1" height="80.5938" id="DeviceType" rx="2.5" ry="2.5" style="stroke:#181818;stroke-width:0.5;" width="114.2158" x="545.33" y="416.5169"/><ellipse cx="560.33" cy="432.5169" fill="#ADD1B2" rx="11" ry="11" style="stroke:#181818;stroke-width:1;"/><path d="M563.2988,438.1575 Q562.7206,438.4544 562.08,438.595 Q561.4394,438.7513 560.7363,438.7513 Q558.2363,438.7513 556.9081,437.1106 Q555.5956,435.4544 555.5956,432.3294 Q555.5956,429.2044 556.9081,427.5481 Q558.2363,425.8919 560.7363,425.8919 Q561.4394,425.8919 562.08,426.0481 Q562.7363,426.2044 563.2988,426.5013 L563.2988,429.22 Q562.6738,428.6419 562.08,428.3763 Q561.4863,428.095 560.8613,428.095 Q559.5175,428.095 558.83,429.1731 Q558.1425,430.2356 558.1425,432.3294 Q558.1425,434.4231 558.83,435.5013 Q559.5175,436.5638 560.8613,436.5638 Q561.4863,436.5638 562.08,436.2981 Q562.6738,436.0169 563.2988,435.4388 L563.2988,438.1575 Z " fill="#000000"/><text fill="#000000" font-family="sans-serif" font-size="14" lengthAdjust="spacing" textLength="82.2158" x="574.33" y="437.3636">DeviceType</text><line style="stroke:#181818;stroke-width:0.5;" x1="546.33" x2="658.5458" y1="448.5169" y2="448.5169"/><text fill="#000000" font-family="sans-serif" font-size="14" lengthAdjust="spacing" textLength="40.1953" x="551.33" y="465.512">id: int</text><text fill="#000000" font-family="sans-serif" font-size="14" lengthAdjust="spacing" textLength="76.7266" x="551.33" y="481.8089">title: string</text><line style="stroke:#181818;stroke-width:0.5;" x1="546.33" x2="658.5458" y1="489.1106" y2="489.1106"/></g><g id="elem_Device"><rect codeline="34" fill="#F1F1F1" height="178.375" id="Device" rx="2.5" ry="2.5" style="stroke:#181818;stroke-width:0.5;" width="161.0166" x="256.93" y="582.2669"/><ellipse cx="309.2488" cy="598.2669" fill="#ADD1B2" rx="11" ry="11" style="stroke:#181818;stroke-width:1;"/><path d="M312.2176,603.9075 Q311.6395,604.2044 310.9988,604.345 Q310.3582,604.5013 309.6551,604.5013 Q307.1551,604.5013 305.827,602.8606 Q304.5145,601.2044 304.5145,598.0794 Q304.5145,594.9544 305.827,593.2981 Q307.1551,591.6419 309.6551,591.6419 Q310.3582,591.6419 310.9988,591.7981 Q311.6551,591.9544 312.2176,592.2513 L312.2176,594.97 Q311.5926,594.3919 310.9988,594.1263 Q310.4051,593.845 309.7801,593.845 Q308.4363,593.845 307.7488,594.9231 Q307.0613,595.9856 307.0613,598.0794 Q307.0613,600.1731 307.7488,601.2513 Q308.4363,602.3138 309.7801,602.3138 Q310.4051,602.3138 310.9988,602.0481 Q311.5926,601.7669 312.2176,601.1888 L312.2176,603.9075 Z " fill="#000000"/><text fill="#000000" font-family="sans-serif" font-size="14" lengthAdjust="spacing" textLength="47.8789" x="329.7488" y="603.1136">Device</text><line style="stroke:#181818;stroke-width:0.5;" x1="257.93" x2="416.9466" y1="614.2669" y2="614.2669"/><text fill="#000000" font-family="sans-serif" font-size="14" lengthAdjust="spacing" textLength="40.1953" x="262.93" y="631.262">id: int</text><text fill="#000000" font-family="sans-serif" font-size="14" lengthAdjust="spacing" textLength="76.7266" x="262.93" y="647.5589">title: string</text><text fill="#000000" font-family="sans-serif" font-size="14" lengthAdjust="spacing" textLength="78.4697" x="262.93" y="663.8557">type_id: int</text><text fill="#000000" font-family="sans-serif" font-size="14" lengthAdjust="spacing" textLength="89.4141" x="262.93" y="680.1526">house_id: int</text><text fill="#000000" font-family="sans-serif" font-size="14" lengthAdjust="spacing" textLength="83.7197" x="262.93" y="696.4495">room_id: int</text><text fill="#000000" font-family="sans-serif" font-size="14" lengthAdjust="spacing" textLength="126.8135" x="262.93" y="712.7464">device_hub_id: int</text><text fill="#000000" font-family="sans-serif" font-size="14" lengthAdjust="spacing" textLength="149.0166" x="262.93" y="729.0432">serial_number: string</text><text fill="#000000" font-family="sans-serif" font-size="14" lengthAdjust="spacing" textLength="92.374" x="262.93" y="745.3401">status: string</text><line style="stroke:#181818;stroke-width:0.5;" x1="257.93" x2="416.9466" y1="752.6419" y2="752.6419"/></g><g id="elem_TelemetryData"><rect codeline="45" fill="#F1F1F1" height="96.8906" id="TelemetryData" rx="2.5" ry="2.5" style="stroke:#181818;stroke-width:0.5;" width="136.877" x="7" y="623.0069"/><ellipse cx="22" cy="639.0069" fill="#ADD1B2" rx="11" ry="11" style="stroke:#181818;stroke-width:1;"/><path d="M24.9688,644.6475 Q24.3906,644.9444 23.75,645.085 Q23.1094,645.2413 22.4063,645.2413 Q19.9063,645.2413 18.5781,643.6006 Q17.2656,641.9444 17.2656,638.8194 Q17.2656,635.6944 18.5781,634.0381 Q19.9063,632.3819 22.4063,632.3819 Q23.1094,632.3819 23.75,632.5381 Q24.4063,632.6944 24.9688,632.9913 L24.9688,635.71 Q24.3438,635.1319 23.75,634.8663 Q23.1563,634.585 22.5313,634.585 Q21.1875,634.585 20.5,635.6631 Q19.8125,636.7256 19.8125,638.8194 Q19.8125,640.9131 20.5,641.9913 Q21.1875,643.0538 22.5313,643.0538 Q23.1563,643.0538 23.75,642.7881 Q24.3438,642.5069 24.9688,641.9288 L24.9688,644.6475 Z " fill="#000000"/><text fill="#000000" font-family="sans-serif" font-size="14" lengthAdjust="spacing" textLength="104.877" x="36" y="643.8536">TelemetryData</text><line style="stroke:#181818;stroke-width:0.5;" x1="8" x2="142.877" y1="655.0069" y2="655.0069"/><text fill="#000000" font-family="sans-serif" font-size="14" lengthAdjust="spacing" textLength="40.1953" x="13" y="672.002">id: int</text><text fill="#000000" font-family="sans-serif" font-size="14" lengthAdjust="spacing" textLength="76.7266" x="13" y="688.2989">title: string</text><text fill="#000000" font-family="sans-serif" font-size="14" lengthAdjust="spacing" textLength="58.8027" x="13" y="704.5957">num: int</text><line style="stroke:#181818;stroke-width:0.5;" x1="8" x2="142.877" y1="711.8975" y2="711.8975"/></g><g id="elem_DeviceTelemetryData"><rect codeline="51" fill="#F1F1F1" height="96.8906" id="DeviceTelemetryData" rx="2.5" ry="2.5" style="stroke:#181818;stroke-width:0.5;" width="184.7559" x="7.06" y="853.9369"/><ellipse cx="22.06" cy="869.9369" fill="#ADD1B2" rx="11" ry="11" style="stroke:#181818;stroke-width:1;"/><path d="M25.0288,875.5775 Q24.4506,875.8744 23.81,876.015 Q23.1694,876.1713 22.4663,876.1713 Q19.9663,876.1713 18.6381,874.5306 Q17.3256,872.8744 17.3256,869.7494 Q17.3256,866.6244 18.6381,864.9681 Q19.9663,863.3119 22.4663,863.3119 Q23.1694,863.3119 23.81,863.4681 Q24.4663,863.6244 25.0288,863.9213 L25.0288,866.64 Q24.4038,866.0619 23.81,865.7963 Q23.2163,865.515 22.5913,865.515 Q21.2475,865.515 20.56,866.5931 Q19.8725,867.6556 19.8725,869.7494 Q19.8725,871.8431 20.56,872.9213 Q21.2475,873.9838 22.5913,873.9838 Q23.2163,873.9838 23.81,873.7181 Q24.4038,873.4369 25.0288,872.8588 L25.0288,875.5775 Z " fill="#000000"/><text fill="#000000" font-family="sans-serif" font-size="14" lengthAdjust="spacing" textLength="152.7559" x="36.06" y="874.7836">DeviceTelemetryData</text><line style="stroke:#181818;stroke-width:0.5;" x1="8.06" x2="190.8159" y1="885.9369" y2="885.9369"/><text fill="#000000" font-family="sans-serif" font-size="14" lengthAdjust="spacing" textLength="93.1807" x="13.06" y="902.932">device_id: int</text><text fill="#000000" font-family="sans-serif" font-size="14" lengthAdjust="spacing" textLength="154.1162" x="13.06" y="919.2289">telemetry_data_id: int</text><text fill="#000000" font-family="sans-serif" font-size="14" lengthAdjust="spacing" textLength="69.3232" x="13.06" y="935.5257">data: json</text><line style="stroke:#181818;stroke-width:0.5;" x1="8.06" x2="190.8159" y1="942.8275" y2="942.8275"/></g><g id="elem_Scenario"><rect codeline="57" fill="#F1F1F1" height="96.8906" id="Scenario" rx="2.5" ry="2.5" style="stroke:#181818;stroke-width:0.5;" width="93.6279" x="497.62" y="853.9369"/><ellipse cx="512.9654" cy="869.9369" fill="#ADD1B2" rx="11" ry="11" style="stroke:#181818;stroke-width:1;"/><path d="M515.9342,875.5775 Q515.356,875.8744 514.7154,876.015 Q514.0748,876.1713 513.3717,876.1713 Q510.8717,876.1713 509.5435,874.5306 Q508.231,872.8744 508.231,869.7494 Q508.231,866.6244 509.5435,864.9681 Q510.8717,863.3119 513.3717,863.3119 Q514.0748,863.3119 514.7154,863.4681 Q515.3717,863.6244 515.9342,863.9213 L515.9342,866.64 Q515.3092,866.0619 514.7154,865.7963 Q514.1217,865.515 513.4967,865.515 Q512.1529,865.515 511.4654,866.5931 Q510.7779,867.6556 510.7779,869.7494 Q510.7779,871.8431 511.4654,872.9213 Q512.1529,873.9838 513.4967,873.9838 Q514.1217,873.9838 514.7154,873.7181 Q515.3092,873.4369 515.9342,872.8588 L515.9342,875.5775 Z " fill="#000000"/><text fill="#000000" font-family="sans-serif" font-size="14" lengthAdjust="spacing" textLength="60.8604" x="527.0422" y="874.7836">Scenario</text><line style="stroke:#181818;stroke-width:0.5;" x1="498.62" x2="590.2479" y1="885.9369" y2="885.9369"/><text fill="#000000" font-family="sans-serif" font-size="14" lengthAdjust="spacing" textLength="40.1953" x="503.62" y="902.932">id: int</text><text fill="#000000" font-family="sans-serif" font-size="14" lengthAdjust="spacing" textLength="76.7266" x="503.62" y="919.2289">title: string</text><text fill="#000000" font-family="sans-serif" font-size="14" lengthAdjust="spacing" textLength="81.6279" x="503.62" y="935.5257">active: bool</text><line style="stroke:#181818;stroke-width:0.5;" x1="498.62" x2="590.2479" y1="942.8275" y2="942.8275"/></g><g id="elem_ScenarioTerms"><rect codeline="63" fill="#F1F1F1" height="129.4844" id="ScenarioTerms" rx="2.5" ry="2.5" style="stroke:#181818;stroke-width:0.5;" width="136.7129" x="652.08" y="837.6369"/><ellipse cx="667.08" cy="853.6369" fill="#ADD1B2" rx="11" ry="11" style="stroke:#181818;stroke-width:1;"/><path d="M670.0488,859.2775 Q669.4706,859.5744 668.83,859.715 Q668.1894,859.8713 667.4863,859.8713 Q664.9863,859.8713 663.6581,858.2306 Q662.3456,856.5744 662.3456,853.4494 Q662.3456,850.3244 663.6581,848.6681 Q664.9863,847.0119 667.4863,847.0119 Q668.1894,847.0119 668.83,847.1681 Q669.4863,847.3244 670.0488,847.6213 L670.0488,850.34 Q669.4238,849.7619 668.83,849.4963 Q668.2363,849.215 667.6113,849.215 Q666.2675,849.215 665.58,850.2931 Q664.8925,851.3556 664.8925,853.4494 Q664.8925,855.5431 665.58,856.6213 Q666.2675,857.6838 667.6113,857.6838 Q668.2363,857.6838 668.83,857.4181 Q669.4238,857.1369 670.0488,856.5588 L670.0488,859.2775 Z " fill="#000000"/><text fill="#000000" font-family="sans-serif" font-size="14" lengthAdjust="spacing" textLength="104.7129" x="681.08" y="858.4836">ScenarioTerms</text><line style="stroke:#181818;stroke-width:0.5;" x1="653.08" x2="787.7929" y1="869.6369" y2="869.6369"/><text fill="#000000" font-family="sans-serif" font-size="14" lengthAdjust="spacing" textLength="40.1953" x="658.08" y="886.632">id: int</text><text fill="#000000" font-family="sans-serif" font-size="14" lengthAdjust="spacing" textLength="76.7266" x="658.08" y="902.9289">title: string</text><text fill="#000000" font-family="sans-serif" font-size="14" lengthAdjust="spacing" textLength="81.6279" x="658.08" y="919.2257">active: bool</text><text fill="#000000" font-family="sans-serif" font-size="14" lengthAdjust="spacing" textLength="93.1807" x="658.08" y="935.5226">device_id: int</text><text fill="#000000" font-family="sans-serif" font-size="14" lengthAdjust="spacing" textLength="69.3232" x="658.08" y="951.8195">data: json</text><line style="stroke:#181818;stroke-width:0.5;" x1="653.08" x2="787.7929" y1="959.1213" y2="959.1213"/></g><g id="elem_ScenarioCommands"><rect codeline="71" fill="#F1F1F1" height="96.8906" id="ScenarioCommands" rx="2.5" ry="2.5" style="stroke:#181818;stroke-width:0.5;" width="172.1094" x="238.38" y="853.9369"/><ellipse cx="253.38" cy="869.9369" fill="#ADD1B2" rx="11" ry="11" style="stroke:#181818;stroke-width:1;"/><path d="M256.3488,875.5775 Q255.7706,875.8744 255.13,876.015 Q254.4894,876.1713 253.7863,876.1713 Q251.2863,876.1713 249.9581,874.5306 Q248.6456,872.8744 248.6456,869.7494 Q248.6456,866.6244 249.9581,864.9681 Q251.2863,863.3119 253.7863,863.3119 Q254.4894,863.3119 255.13,863.4681 Q255.7863,863.6244 256.3488,863.9213 L256.3488,866.64 Q255.7238,866.0619 255.13,865.7963 Q254.5363,865.515 253.9113,865.515 Q252.5675,865.515 251.88,866.5931 Q251.1925,867.6556 251.1925,869.7494 Q251.1925,871.8431 251.88,872.9213 Q252.5675,873.9838 253.9113,873.9838 Q254.5363,873.9838 255.13,873.7181 Q255.7238,873.4369 256.3488,872.8588 L256.3488,875.5775 Z " fill="#000000"/><text fill="#000000" font-family="sans-serif" font-size="14" lengthAdjust="spacing" textLength="140.1094" x="267.38" y="874.7836">ScenarioCommands</text><line style="stroke:#181818;stroke-width:0.5;" x1="239.38" x2="409.4894" y1="885.9369" y2="885.9369"/><text fill="#000000" font-family="sans-serif" font-size="14" lengthAdjust="spacing" textLength="40.1953" x="244.38" y="902.932">id: int</text><text fill="#000000" font-family="sans-serif" font-size="14" lengthAdjust="spacing" textLength="93.1807" x="244.38" y="919.2289">device_id: int</text><text fill="#000000" font-family="sans-serif" font-size="14" lengthAdjust="spacing" textLength="69.3232" x="244.38" y="935.5257">data: json</text><line style="stroke:#181818;stroke-width:0.5;" x1="239.38" x2="409.4894" y1="942.8275" y2="942.8275"/></g><g id="elem_ManyToManyScenarioCommands"><rect codeline="77" fill="#F1F1F1" height="80.5938" id="ManyToManyScenarioCommands" rx="2.5" ry="2.5" style="stroke:#181818;stroke-width:0.5;" width="264.8594" x="248.01" y="1044.1269"/><ellipse cx="263.01" cy="1060.1269" fill="#ADD1B2" rx="11" ry="11" style="stroke:#181818;stroke-width:1;"/><path d="M265.9788,1065.7675 Q265.4006,1066.0644 264.76,1066.205 Q264.1194,1066.3613 263.4163,1066.3613 Q260.9163,1066.3613 259.5881,1064.7206 Q258.2756,1063.0644 258.2756,1059.9394 Q258.2756,1056.8144 259.5881,1055.1581 Q260.9163,1053.5019 263.4163,1053.5019 Q264.1194,1053.5019 264.76,1053.6581 Q265.4163,1053.8144 265.9788,1054.1113 L265.9788,1056.83 Q265.3538,1056.2519 264.76,1055.9863 Q264.1663,1055.705 263.5413,1055.705 Q262.1975,1055.705 261.51,1056.7831 Q260.8225,1057.8456 260.8225,1059.9394 Q260.8225,1062.0331 261.51,1063.1113 Q262.1975,1064.1738 263.5413,1064.1738 Q264.1663,1064.1738 264.76,1063.9081 Q265.3538,1063.6269 265.9788,1063.0488 L265.9788,1065.7675 Z " fill="#000000"/><text fill="#000000" font-family="sans-serif" font-size="14" lengthAdjust="spacing" textLength="232.8594" x="277.01" y="1064.9736">ManyToManyScenarioCommands</text><line style="stroke:#181818;stroke-width:0.5;" x1="249.01" x2="511.8694" y1="1076.1269" y2="1076.1269"/><text fill="#000000" font-family="sans-serif" font-size="14" lengthAdjust="spacing" textLength="106.4629" x="254.01" y="1093.122">scenario_id: int</text><text fill="#000000" font-family="sans-serif" font-size="14" lengthAdjust="spacing" textLength="190.6338" x="254.01" y="1109.4189">scenario_commands_id: int</text><line style="stroke:#181818;stroke-width:0.5;" x1="249.01" x2="511.8694" y1="1116.7206" y2="1116.7206"/></g><g id="elem_ManyToManyScenarioTerms"><rect codeline="82" fill="#F1F1F1" height="80.5938" id="ManyToManyScenarioTerms" rx="2.5" ry="2.5" style="stroke:#181818;stroke-width:0.5;" width="229.4629" x="560.71" y="1044.1269"/><ellipse cx="575.71" cy="1060.1269" fill="#ADD1B2" rx="11" ry="11" style="stroke:#181818;stroke-width:1;"/><path d="M578.6788,1065.7675 Q578.1006,1066.0644 577.46,1066.205 Q576.8194,1066.3613 576.1163,1066.3613 Q573.6163,1066.3613 572.2881,1064.7206 Q570.9756,1063.0644 570.9756,1059.9394 Q570.9756,1056.8144 572.2881,1055.1581 Q573.6163,1053.5019 576.1163,1053.5019 Q576.8194,1053.5019 577.46,1053.6581 Q578.1163,1053.8144 578.6788,1054.1113 L578.6788,1056.83 Q578.0538,1056.2519 577.46,1055.9863 Q576.8663,1055.705 576.2413,1055.705 Q574.8975,1055.705 574.21,1056.7831 Q573.5225,1057.8456 573.5225,1059.9394 Q573.5225,1062.0331 574.21,1063.1113 Q574.8975,1064.1738 576.2413,1064.1738 Q576.8663,1064.1738 577.46,1063.9081 Q578.0538,1063.6269 578.6788,1063.0488 L578.6788,1065.7675 Z " fill="#000000"/><text fill="#000000" font-family="sans-serif" font-size="14" lengthAdjust="spacing" textLength="197.4629" x="589.71" y="1064.9736">ManyToManyScenarioTerms</text><line style="stroke:#181818;stroke-width:0.5;" x1="561.71" x2="789.1729" y1="1076.1269" y2="1076.1269"/><text fill="#000000" font-family="sans-serif" font-size="14" lengthAdjust="spacing" textLength="106.4629" x="566.71" y="1093.122">scenario_id: int</text><text fill="#000000" font-family="sans-serif" font-size="14" lengthAdjust="spacing" textLength="154.2529" x="566.71" y="1109.4189">scenario_terms_id: int</text><line style="stroke:#181818;stroke-width:0.5;" x1="561.71" x2="789.1729" y1="1116.7206" y2="1116.7206"/></g><g id="link_User_House"><path codeline="87" d="M263.44,163.8669 C263.44,188.3269 263.44,210.7269 263.44,234.1769 " fill="none" id="User-backto-House" style="stroke:#181818;stroke-width:1;"/><polygon fill="#181818" points="263.44,157.8669,259.44,166.8669,263.44,162.8669,267.44,166.8669,263.44,157.8669" style="stroke:#181818;stroke-width:1;"/><text fill="#000000" font-family="sans-serif" font-size="13" lengthAdjust="spacing" textLength="46.7188" x="264.44" y="200.5538">user_id</text><text fill="#000000" font-family="sans-serif" font-size="13" lengthAdjust="spacing" textLength="8.271" x="254.9931" y="177.3965">1</text><text fill="#000000" font-family="sans-serif" font-size="13" lengthAdjust="spacing" textLength="23.0356" x="238.8259" y="223.3422">0..*</text></g><g id="link_House_Room"><path codeline="88" d="M263.44,337.8069 C263.44,361.5469 263.44,384.1469 263.44,407.8969 " fill="none" id="House-backto-Room" style="stroke:#181818;stroke-width:1;"/><polygon fill="#181818" points="263.44,331.8069,259.44,340.8069,263.44,336.8069,267.44,340.8069,263.44,331.8069" style="stroke:#181818;stroke-width:1;"/><text fill="#000000" font-family="sans-serif" font-size="13" lengthAdjust="spacing" textLength="57.5669" x="264.44" y="374.4438">house_id</text><text fill="#000000" font-family="sans-serif" font-size="13" lengthAdjust="spacing" textLength="8.271" x="254.9213" y="351.458">1</text><text fill="#000000" font-family="sans-serif" font-size="13" lengthAdjust="spacing" textLength="23.0356" x="238.8975" y="397.3905">0..*</text></g><g id="link_House_DeviceHub"><path codeline="89" d="M312.9672,335.2136 C336.0972,359.1736 360.02,383.9369 383.27,408.0069 " fill="none" id="House-backto-DeviceHub" style="stroke:#181818;stroke-width:1;"/><polygon fill="#181818" points="308.8,330.8969,312.173,340.1501,312.2727,334.4942,317.9287,334.5939,308.8,330.8969" style="stroke:#181818;stroke-width:1;"/><text fill="#000000" font-family="sans-serif" font-size="13" lengthAdjust="spacing" textLength="57.5669" x="352.44" y="374.4438">house_id</text><text fill="#000000" font-family="sans-serif" font-size="13" lengthAdjust="spacing" textLength="8.271" x="307.1547" y="351.467">1</text><text fill="#000000" font-family="sans-serif" font-size="13" lengthAdjust="spacing" textLength="23.0356" x="352.1629" y="397.1638">0..*</text></g><g id="link_House_Device"><path codeline="90" d="M213.41,317.2102 C184.02,339.3802 153,368.9569 136.44,408.3769 C119.76,448.0769 118.04,466.3269 136.44,505.2669 C161.33,557.9469 212.18,599.4769 256.5,627.7169 " fill="none" id="House-backto-Device" style="stroke:#181818;stroke-width:1;"/><polygon fill="#181818" points="218.2,313.5969,208.6061,315.8235,214.2083,316.6079,213.4238,322.2101,218.2,313.5969" style="stroke:#181818;stroke-width:1;"/><text fill="#000000" font-family="sans-serif" font-size="13" lengthAdjust="spacing" textLength="57.5669" x="137.44" y="461.3838">house_id</text><text fill="#000000" font-family="sans-serif" font-size="13" lengthAdjust="spacing" textLength="8.271" x="202.3747" y="314.3662">1</text><text fill="#000000" font-family="sans-serif" font-size="13" lengthAdjust="spacing" textLength="23.0356" x="225.8464" y="620.5462">0..*</text></g><g id="link_Room_Device"><path codeline="91" d="M282.0219,511.2036 C289.8619,533.7336 297.5,555.7069 306.61,581.8669 " fill="none" id="Room-backto-Device" style="stroke:#181818;stroke-width:1;"/><polygon fill="#181818" points="280.05,505.5369,279.2301,515.3515,281.6933,510.2591,286.7857,512.7223,280.05,505.5369" style="stroke:#181818;stroke-width:1;"/><text fill="#000000" font-family="sans-serif" font-size="13" lengthAdjust="spacing" textLength="52.2793" x="297.44" y="548.3338">room_id</text><text fill="#000000" font-family="sans-serif" font-size="13" lengthAdjust="spacing" textLength="8.271" x="273.7631" y="525.1665">1</text><text fill="#000000" font-family="sans-serif" font-size="13" lengthAdjust="spacing" textLength="23.0356" x="280.2384" y="571.2024">0..*</text></g><g id="link_DeviceHub_Device"><path codeline="92" d="M406.407,511.0434 C396.657,533.5734 387.09,555.7069 375.77,581.8669 " fill="none" id="DeviceHub-backto-Device" style="stroke:#181818;stroke-width:1;"/><polygon fill="#181818" points="408.79,505.5369,401.5446,512.208,406.8042,510.1256,408.8865,515.3853,408.79,505.5369" style="stroke:#181818;stroke-width:1;"/><text fill="#000000" font-family="sans-serif" font-size="13" lengthAdjust="spacing" textLength="92.2949" x="394.44" y="548.3338">device_hub_id</text><text fill="#000000" font-family="sans-serif" font-size="13" lengthAdjust="spacing" textLength="8.271" x="397.4961" y="525.1665">1</text><text fill="#000000" font-family="sans-serif" font-size="13" lengthAdjust="spacing" textLength="23.0356" x="354.9096" y="571.2024">0..*</text></g><g id="link_DeviceType_Device"><path codeline="93" d="M554.6711,501.4605 C535.4611,518.6705 516.87,534.8369 495.44,552.2669 C470.85,572.2569 443.41,593.2269 418.38,611.8669 " fill="none" id="DeviceType-backto-Device" style="stroke:#181818;stroke-width:1;"/><polygon fill="#181818" points="559.14,497.4569,549.7676,500.4831,555.4159,500.7932,555.1057,506.4416,559.14,497.4569" style="stroke:#181818;stroke-width:1;"/><text fill="#000000" font-family="sans-serif" font-size="13" lengthAdjust="spacing" textLength="47.4043" x="513.44" y="548.3338">type_id</text><text fill="#000000" font-family="sans-serif" font-size="13" lengthAdjust="spacing" textLength="8.271" x="543.6235" y="517.2072">1</text><text fill="#000000" font-family="sans-serif" font-size="13" lengthAdjust="spacing" textLength="23.0356" x="426.0368" y="603.3836">0..*</text></g><g id="link_Device_DeviceTelemetryData"><path codeline="94" d="M252.2055,754.4361 C216.6255,788.6561 180.3,823.5969 149.26,853.4569 " fill="none" id="Device-backto-DeviceTelemetryData" style="stroke:#181818;stroke-width:1;"/><polygon fill="#181818" points="256.53,750.2769,247.2705,753.6327,252.9263,753.7429,252.8161,759.3986,256.53,750.2769" style="stroke:#181818;stroke-width:1;"/><text fill="#000000" font-family="sans-serif" font-size="13" lengthAdjust="spacing" textLength="61.0645" x="212.44" y="803.7038">device_id</text><text fill="#000000" font-family="sans-serif" font-size="13" lengthAdjust="spacing" textLength="8.271" x="240.715" y="753.9249">1</text><text fill="#000000" font-family="sans-serif" font-size="13" lengthAdjust="spacing" textLength="23.0356" x="131.4119" y="842.9505">0..*</text></g><g id="link_TelemetryData_DeviceTelemetryData"><path codeline="95" d="M70.235,726.2145 C68.565,752.1845 68.37,778.8169 72.44,807.6369 C74.59,822.8969 78.63,839.1569 82.93,853.7669 " fill="none" id="TelemetryData-backto-DeviceTelemetryData" style="stroke:#181818;stroke-width:1;"/><polygon fill="#181818" points="70.62,720.2269,66.0507,728.9516,70.2991,725.2166,74.0342,729.465,70.62,720.2269" style="stroke:#181818;stroke-width:1;"/><text fill="#000000" font-family="sans-serif" font-size="13" lengthAdjust="spacing" textLength="117.6475" x="73.44" y="803.7038">telemetry_data_id</text><text fill="#000000" font-family="sans-serif" font-size="13" lengthAdjust="spacing" textLength="8.271" x="61.4532" y="739.8646">1</text><text fill="#000000" font-family="sans-serif" font-size="13" lengthAdjust="spacing" textLength="23.0356" x="55.9939" y="842.9519">0..*</text></g><g id="link_Device_ScenarioTerms"><path codeline="96" d="M423.3402,723.7951 C492.5902,765.1851 586.11,821.0869 651.65,860.2669 " fill="none" id="Device-backto-ScenarioTerms" style="stroke:#181818;stroke-width:1;"/><polygon fill="#181818" points="418.19,720.7169,423.8632,728.7677,422.4818,723.2821,427.9674,721.9007,418.19,720.7169" style="stroke:#181818;stroke-width:1;"/><text fill="#000000" font-family="sans-serif" font-size="13" lengthAdjust="spacing" textLength="61.0645" x="563.44" y="803.7038">device_id</text><text fill="#000000" font-family="sans-serif" font-size="13" lengthAdjust="spacing" textLength="8.271" x="426.0155" y="721.6399">1</text><text fill="#000000" font-family="sans-serif" font-size="13" lengthAdjust="spacing" textLength="23.0356" x="620.9994" y="852.6114">0..*</text></g><g id="link_Device_ScenarioCommands"><path codeline="97" d="M332.0706,766.9473 C330.2806,798.5373 328.67,826.9069 327.14,853.7369 " fill="none" id="Device-backto-ScenarioCommands" style="stroke:#181818;stroke-width:1;"/><polygon fill="#181818" points="332.41,760.9569,327.9073,769.7162,332.1271,765.9489,335.8944,770.1688,332.41,760.9569" style="stroke:#181818;stroke-width:1;"/><text fill="#000000" font-family="sans-serif" font-size="13" lengthAdjust="spacing" textLength="61.0645" x="332.44" y="803.7038">device_id</text><text fill="#000000" font-family="sans-serif" font-size="13" lengthAdjust="spacing" textLength="8.271" x="323.7014" y="780.7589">1</text><text fill="#000000" font-family="sans-serif" font-size="13" lengthAdjust="spacing" textLength="23.0356" x="302.9058" y="842.9177">0..*</text></g><g id="link_Scenario_ManyToManyScenarioCommands"><path codeline="98" d="M510.4497,956.1803 C496.4797,976.4903 482.45,994.9169 464.44,1014.1269 C454.74,1024.4669 443.51,1034.6969 432.49,1043.9969 " fill="none" id="Scenario-backto-ManyToManyScenarioCommands" style="stroke:#181818;stroke-width:1;"/><polygon fill="#181818" points="513.85,951.2369,505.4539,956.3852,511.0164,955.3564,512.0452,960.919,513.85,951.2369" style="stroke:#181818;stroke-width:1;"/><text fill="#000000" font-family="sans-serif" font-size="13" lengthAdjust="spacing" textLength="73.3979" x="479.44" y="1010.1938">scenario_id</text><text fill="#000000" font-family="sans-serif" font-size="13" lengthAdjust="spacing" textLength="8.271" x="501.221" y="970.8854">1</text><text fill="#000000" font-family="sans-serif" font-size="13" lengthAdjust="spacing" textLength="23.0356" x="416.2091" y="1033.1369">0..*</text></g><g id="link_ScenarioCommands_ManyToManyScenarioCommands"><path codeline="99" d="M304.4791,956.9913 C299.5091,977.0813 298.99,994.4669 307.44,1014.1269 C312.13,1025.0369 319.48,1035.0469 327.74,1043.8569 " fill="none" id="ScenarioCommands-backto-ManyToManyScenarioCommands" style="stroke:#181818;stroke-width:1;"/><polygon fill="#181818" points="305.92,951.1669,299.8757,958.9429,304.7193,956.0206,307.6416,960.8641,305.92,951.1669" style="stroke:#181818;stroke-width:1;"/><text fill="#000000" font-family="sans-serif" font-size="13" lengthAdjust="spacing" textLength="151.5566" x="308.44" y="1010.1938">scenario_commands_id</text><text fill="#000000" font-family="sans-serif" font-size="13" lengthAdjust="spacing" textLength="8.271" x="294.9128" y="970.8059">1</text><text fill="#000000" font-family="sans-serif" font-size="13" lengthAdjust="spacing" textLength="23.0356" x="294.1099" y="1032.9737">0..*</text></g><g id="link_Scenario_ManyToManyScenarioTerms"><path codeline="100" d="M573.4741,956.2649 C585.1341,976.3349 596.58,994.3669 611.44,1014.1269 C619.02,1024.1969 627.83,1034.4869 636.44,1043.9369 " fill="none" id="Scenario-backto-ManyToManyScenarioTerms" style="stroke:#181818;stroke-width:1;"/><polygon fill="#181818" points="570.46,951.0769,571.5224,960.8683,572.9717,955.4002,578.4398,956.8495,570.46,951.0769" style="stroke:#181818;stroke-width:1;"/><text fill="#000000" font-family="sans-serif" font-size="13" lengthAdjust="spacing" textLength="73.3979" x="612.44" y="1010.1938">scenario_id</text><text fill="#000000" font-family="sans-serif" font-size="13" lengthAdjust="spacing" textLength="8.271" x="565.5765" y="971.0555">1</text><text fill="#000000" font-family="sans-serif" font-size="13" lengthAdjust="spacing" textLength="23.0356" x="605.0786" y="1033.0669">0..*</text></g><g id="link_ScenarioTerms_ManyToManyScenarioTerms"><path codeline="101" d="M704.4104,973.4361 C700.8004,988.7161 698.26,999.0969 694.44,1014.1269 C691.98,1023.7969 689.2,1034.1869 686.54,1043.9069 " fill="none" id="ScenarioTerms-backto-ManyToManyScenarioTerms" style="stroke:#181818;stroke-width:1;"/><polygon fill="#181818" points="705.79,967.5969,699.8278,975.436,704.6404,972.4629,707.6135,977.2755,705.79,967.5969" style="stroke:#181818;stroke-width:1;"/><text fill="#000000" font-family="sans-serif" font-size="13" lengthAdjust="spacing" textLength="117.7744" x="698.44" y="1010.1938">scenario_terms_id</text><text fill="#000000" font-family="sans-serif" font-size="13" lengthAdjust="spacing" textLength="8.271" x="695.8811" y="987.1696">1</text><text fill="#000000" font-family="sans-serif" font-size="13" lengthAdjust="spacing" textLength="23.0356" x="663.4765" y="1033.032">0..*</text></g></g></svg>